<svg width="142" height="110" viewBox="0 0 142 110" xmlns="http://www.w3.org/2000/svg" xmlns:xlink="http://www.w3.org/1999/xlink"><svg id="instagram" viewBox="0 0 50 50" width="50" height="50" y="60"><style>.ast0{fill:#fff}</style><path class="ast0" d="M36.2.6c4.2.2 7.9 1.8 10.5 5.3 1.6 2.2 2.6 4.8 2.6 7.5.1 7.7.3 15.4 0 23.1-.3 7.4-5.7 12.6-13.1 12.8-7.4.2-14.8.2-22.3 0C6.3 49.1.9 43.8.7 36.1.5 28.7.5 21.3.7 13.8.9 6.1 6.3.9 14 .6h22.2zm-.7 44.3c5.8-.2 9.3-3.6 9.4-9.4.2-7.1.2-14.1 0-21.2-.1-5.7-3.6-9.2-9.3-9.3-7.1-.1-14.1-.1-21.2 0-3.3.1-6.3 1.2-7.9 4.3-.8 1.5-1.3 3.3-1.4 4.9-.1 7.1-.2 14.3 0 21.4.1 5.3 3 8.5 8.3 9.1l22.1.2z"/><path class="ast0" d="M12.4 24.9c0-7 5.7-12.6 12.7-12.6 7 0 12.7 5.8 12.6 12.7-.1 6.9-5.7 12.6-12.6 12.6-7 0-12.7-5.8-12.7-12.7zm20.8.1c0-4.6-3.6-8.2-8.1-8.2s-8.1 3.5-8.2 8.1c0 4.6 3.5 8.2 8.1 8.3 4.5-.1 8.2-3.7 8.2-8.2zm5-16.1c1.7 0 2.9 1.3 2.9 3 0 1.6-1.4 2.9-3 2.8-1.6 0-2.9-1.4-2.9-3s1.4-2.8 3-2.8z"/></svg><svg id="ponceslogo" viewBox="0 0 142 60" width="142" height="60"><style>.bst0{fill:#fff}</style><path class="bst0" d="M121.5 29.9c0-.2.2-.3.3-.3.2 0 .4.2.4.3 0 .2-.2.3-.4.3s-.3-.1-.3-.3zm-105.1-.4c0-.2.2-.3.3-.3.2 0 .4.2.4.3 0 .2-.2.3-.4.3-.1 0-.3-.1-.3-.3z"/><path class="bst0" d="M13.2 23.9h-2.8c0 4.8.1 8.1.3 11.5.1 2.6 2.1 3 6.8 3.1v.5c-2.8-.1-6.1-.2-8.4-.2L8.8 33l-.5 5.8c-1.8 0-4.8.1-7.6.2v-.5c4.8-.1 6.2-.5 6.3-3.1.2-3.4.3-7.1.3-11-.4-.3-1.4-.8-1.9-1.1.5-.3 1.5-.8 1.9-1.1 0-5.2-.1-6.1-.3-10.6C6.9 8.8 5.6 8.4.9 8.2v-.5c2.8.2 5.2.2 7.4.2l.5 5.9.4-5.9c1.6 0 3-.2 5.1-.2 6 0 8.9 3.8 8.9 7.9 0 3.9-2.4 8.3-10 8.3zm-.6-15.4h-1.8c-.2 3.4-.3 6.9-.3 14.7h2.8c4.8 0 6.6-3.4 6.6-7.5-.1-4.7-2.2-7.2-7.3-7.2zm8.4 4c.1.9.1 1.8.1 3 0 1.3-.1 2.1-.1 3.2.5-.8.8-1.9.8-3.2 0-1.2-.2-2.1-.8-3zm25.5 11.9c-.1 8.1-3.9 15-10.1 15-6.1 0-10-6.9-10.1-15-.4-.3-1.3-.9-1.8-1.1.5-.3 1.3-.7 1.8-1.1.1-8 3.9-14.9 10.1-14.9 6.1 0 10 6.9 10.1 14.9.5.4 1.3.8 1.8 1.1-.5.2-1.4.8-1.8 1.1zm-18.8-.9c-.1 1.7.4 3.3 1.2 4.4-.2-1.5-.2-2.6-.2-4.4 0-1.6.1-2.9.3-4.1-1 1.3-1.2 2.5-1.3 4.1zm8.7-15.6c-4 0-6.1 5.7-6.1 15.4s2.2 15.4 6.1 15.4c4 0 6.1-5.7 6.1-15.4S40.4 7.9 36.4 7.9zm7.5 11.5c.2 1.2.3 2.5.3 4.1 0 1.7-.1 2.8-.2 4.4.7-1.1 1.2-2.6 1.2-4.4-.2-1.6-.4-2.8-1.3-4.1z"/><path class="bst0" d="M71.5 11.7c-.2 3.4-.3 6.4-.3 10.6.5.3 1.2.7 1.7.9-.5.3-1.3.6-1.7 1v15.5l-1.2-.5S56.2 14.3 54.6 11.7v10.7c.5.3 1.2.6 1.7.9-.5.3-1.3.6-1.7 1 0 3.8.1 7.4.3 10.7.1 2.6 1.6 3.4 5.8 3.5v.5c-2.8-.1-4.5-.2-6.3-.2l-.4-4.6-.4 4.6c-2.3 0-3.2.1-6.3.2v-.5c4.2-.2 5.7-.9 5.8-3.5.2-3.4.3-6.9.3-10.7-.5-.3-1.2-.7-1.7-1 .6-.3 1.3-.6 1.7-.9 0-4.3-.2-7.7-.3-11-.1-2.6-1-3-5.8-3.1v-.6c2.9.1 4.2.2 6.4.2l4 5.8-3-5.8 1.7-.2L70 32.8v-8.6c-.5-.3-1.2-.6-1.7-1 .6-.3 1.3-.6 1.7-.9 0-4.3-.2-7.3-.3-10.6-.1-2.6-1.6-3.4-5.8-3.5v-.5c2.9.1 4 .2 6.3.2l.4 4.6.4-4.6c1.8 0 3-.1 5.7-.2v.5c-4.2.2-5.1.9-5.2 3.5zm21.7 26.4c-.6.4-2.5 1.2-5.5 1.2-6.7 0-10.6-7-10.7-15-.5-.3-1.4-.9-1.9-1.1.6-.3 1.4-.7 1.9-1.1.1-9.1 5.3-14.9 11.5-14.9 3.1 0 4.3.7 4.9 1l.3 6.3h-.9c-.4-2.8-.6-6.7-4.4-6.7-5.1 0-7.6 5.7-7.6 15.4s2.6 15.4 7 15.4c3.5 0 5.1-3.3 5.9-6.4h.9l-1.4 5.9zM78.4 23.5c-.1 1.7.4 3.3 1.2 4.4-.2-1.5-.2-2.6-.2-4.4 0-1.6.1-2.9.3-4.1-1 1.3-1.2 2.5-1.3 4.1zM117 39c-1.3 0-9.7-.2-12.9-.2l-.4-5.8-.5 5.8c-1.8 0-4.8.1-7.6.2v-.5c4.7-.2 6.2-.5 6.3-3.1.2-3.4.3-7.1.3-11-.4-.3-1.4-.8-1.9-1.1.5-.3 1.5-.8 1.9-1.1 0-5.2-.1-6.1-.3-10.6-.1-2.8-1.4-3.2-6.1-3.4v-.5c2.8.2 5.2.2 7.4.2l.5 5.9.4-5.9c4.5 0 10.5-.1 12.2-.2l-.4 5.7h-.6c-.1-1.3-.3-2.2-.5-3.3-.2-1.2-1-1.5-2.9-1.6-2.4-.1-3.8 0-6.2 0-.1 1.7-.2 2.9-.2 4.7-.1 3.7-.1 5.8-.1 9.5h5.1c2.6 0 3-.6 3.5-4.4h.7c-.2 1.7-.3 3.2-.3 4.9 0 1.9.1 2.4.3 4.1h-.7c-.5-3.3-.9-3.9-3.4-3.9h-5.2c0 4.2-.1 7.6.1 12.3.1 2 .3 2.1 2.2 2.1 1.5 0 3.4 0 4.9-.1 2.9-.2 3.9-1 5-5h.7L117 39zm4.5-27.6h-.8l-1.2-7.7 1.5-1.2 1.5 1.2-1 7.7zm11.2 27.9c-3.4.1-6.3-.6-8-1.6l-.1-6.3h.6c.8 5.4 3.6 7.5 7.4 7.4 3.9-.1 5.9-2.8 5.9-6.5.1-2.9-1.5-4.7-2.8-5.8-1.3-1.1-2.6-1.8-4.5-2.7-.7-.3-2.4-.4-3.4-.3 0 0 1-.9 1-1.4-2.6-2-4.6-4.8-4.2-8.7.4-3.7 4.3-6.1 8.8-6 2.9 0 4.9.6 6.1 1.1l.1 6.2h-.7c-.6-4.9-2.4-6.6-5.5-6.6-4.2 0-6.3 2-6.4 5.3-.1 2.4 1.4 4.3 2.9 5.4 1.6 1.3 4 2.6 5.6 3.4.5.2 1.8.7 3.2.8 0 0-.9.8-.9 1.2 1.9 2 3.4 4.5 3.3 7.6 0 4.1-3.6 7.3-8.4 7.5zm.4-17.3c-1.3-.5-4-1.9-4-1.9s2.2 1.7 3.2 2.7c1.4.5 3.9 2 3.9 2s-2.1-1.8-3.1-2.8zM14.2 49c-.1.2-.1.3-.1.5 0 .4.5 2.9.5 3l.2-.6s.4-2.2.4-2.4c0-.1-.2-.5-.2-.6l1 .1h1.1c.1 0 .5-.1.5-.1h.1c-.1.3-.5.7-.5 1v4.5c0 .1.1.5.1.5s.2.4.3.5c-.2-.1-.4-.1-.5-.1h-.9l-.6.1c.2-.2.3-.8.3-1.2v-2.6c-.3.9-.6 2.1-.7 3v.2c0 .1.2.4.2.4-.1 0-.6-.1-.8-.1h-.3s-.3.1-.4.1c0-.2.2-.4.2-.5l-.1-.2c-.2-.8-.5-1.9-.6-2.8v2.6c0 .3.2 1 .3 1.2-.2 0-.3-.1-.5-.1h-.5c-.3 0-.6.1-.9.2.2-.4.4-.8.4-1.1V50c0-.3-.3-.7-.3-1.1.2.1.4.1.6.2l.8.1h.4c.1 0 .7-.2.8-.2h-.3zm9.8.4l-.1.7v.6l.1.6c-.2-.2-.7-1.5-1.7-1.5-.3 0-.5.2-.5.5v1.4h.1c.4 0 .5-.1 1-.5h.1c0 .1-.1.2-.1.2 0 .1-.1.2-.1.5v.3c0 .2.1.8.2.9-.5-.3-.6-.5-1-.5h-.2s-.1 0-.1.1v1.2c0 .3 0 .6.4.6 1 0 1.1-.7 1.4-1 .1-.2.2-.3.3-.5 0 .1 0 .2-.1.4v.8c.1.4.1.8.3 1.4-.1-.1-.7-.3-.9-.3h-.2l-.7.2h-.5c-.3-.1-.6-.2-.9-.2h-.4s-.3.1-.5.1c0 0 .3-.8.3-.9 0-.2.1-.3.1-.5v-3.7c0-.4-.1-.9-.3-1.3.2 0 .4.1.6.1h.4c.2 0 .6-.2.9-.2h.5c.1 0 .6.1.8.1h.4c.1 0 .3-.1.4-.2v.6zm4.9.1v.2c0 .1.3 1 .3 1 0-.1.5-1.2.5-1.4 0-.1-.1-.4-.2-.5.3.1.6.2.8.2h.6c.2 0 .4-.1.6-.1-.1.2-.6.8-.9 1.5 0 .1-.8 1.6-.8 1.8 0 .1.7 1.8 1 2.5.1.3.5.7.7 1-.3-.1-.8-.2-1.2-.2H30c-.3.1-.7.2-.7.2 0-.1.2-.3.2-.7 0-.4-.2-.8-.4-1.4-.2.4-.4.9-.5 1.3v.2c0 .2.1.2.1.4-.2 0-.5-.1-.7-.1h-.4c-.4 0-.7.2-.9.2h-.1v-.1c.3-.1.6-.5.7-.8.3-.4 1.1-2.4 1.1-2.4 0-.1-.5-1.2-.7-1.6-.2-.6-.6-1.2-1.1-1.8.1 0 .9.2 1.1.2h.2c.2 0 .8-.2 1-.3.1.2 0 .5 0 .7zm5.4-.7s.7.2.9.3h.4c.3 0 .5-.1.8-.2-.1.3-.4.7-.4 1.1v4.6c0 .3.2.7.4 1-.3 0-.6-.2-.9-.2h-.4c-.1 0-.6.1-.7.1h-.1c.1-.1.4-.8.4-1.1v-4.5c0-.2-.4-.9-.5-1.1h.1zm7.7 1.3l-.1.8-.1.3-.1.2c0-.3-.1-1.4-1-1.4-.4 0-.5.6-.5.7v2.8c0 .2 0 .6.2.8.1.1.5.2.5.2.5 0 .9-.4.9-.8s-.1-.5-.2-.6c0 0 0-.1.1-.1.3 0 .5 0 .7.6 0 .1.1.3.1.5 0 .3-.1.7-.3 1-.3.4-1 .6-1.3.6h-.4s-.3 0-.4-.1c-.3-.1-.9-.6-1-1-.1-.2-.1-.5-.1-.9V51c0-1 .6-2.1 1.8-2.1.1 0 .7.1.7.2l.3.1c.3 0 .5 0 .8-.2l-.6 1.1zm4.9-1.1h.2c.3 0 .7-.2.8-.2 0 .1-.2.6-.2.8v.2l.9 4.3c.1.5.2 1 .5 1.5-.2-.1-.4-.1-.6-.1h-.7c-.5 0-.6.1-.6.1 0-.1.1-.3.1-.6v-.2c0-.1 0-.4-.1-.5h-1c-.3 0-.3.1-.3.4v.1c0 .3.1.5.4.8h-.1s-.6-.2-.8-.2H45c-.2 0-.3.1-.6.2.1-.1.5-.9.5-1.2 0 0 .9-4.4.9-4.6 0-.1.1-.3.1-.4 0-.3-.1-.3-.2-.6.6.1.9.2 1.2.2zm-.6 4.4c0 .1.1.1 0 0h.9v-.1c0-.1-.3-2-.4-2.2-.1.3-.5 2.3-.5 2.3zm10.5-4.6c0 .2-.4.6-.4 1l-.1.4c0 .1-.1.5-.1.7v3.4c0 .4.4 1 .6 1.4-.1 0-.4-.1-.4-.1-.3-.2-.6-.3-.8-.3h-.5l-.8.2c0-.1.2-.3.2-.6 0-.4-1-3.2-1.1-3.4v.5c0 2 .1 1.6.1 1.7v.5c0 .4.3 1 .6 1.4v.1c-.1 0-.6-.2-.7-.2h-.5c-.2 0-.6.2-.7.2h-.1l.3-.7c.1-.1.1-.2.1-.3V50c-.1-.5-.4-1-.4-1.1v-.1h.2s.2.1.3.1c.2 0 .4.1.6.1h.4c.2 0 .7-.2.9-.3h.1c-.1.1-.1.3-.2.5v.2c.2 1 .7 2.5 1 3.5v-2.6c0-.4-.3-1-.5-1.5.2.1 1 .2 1.1.2h.3c-.1 0 .3-.2.5-.2zm7.9.3h.3c.1 0 .9-.2 1.1-.2h.5c.9 0 1.4 1.2 1.4 1.7v.4c0 .2-.1.3-.2.5-.2.4-.7.7-.7.7 0 .1.7.5.7 1.4v.8c0 .3.3.8.4 1.1-.3-.1-.6-.2-.9-.2h-.7s-.1-.5-.1-.9v-1.2c0-.3-.3-.6-.6-.6h-.3c-.1 0-.1.1-.1.1v1.8c0 .3.1.6.3.8h-.1s-.4-.1-.6-.1h-.5c-.3.1-.5.1-.8.2.3-.5.5-1 .5-1.6v-4.1c0-.1-.1-.3-.1-.4 0-.1-.3-.4-.3-.5v-.1l.8.4zm.9.9v1.8h.5c.4 0 .6-.6.6-.8v-.4c0-.4-.2-.7-.6-.7-.4 0-.5 0-.5.1zm9-.6l-.1.7v.6l.1.6c-.2-.2-.7-1.5-1.7-1.5-.3 0-.5.2-.5.5v1.4h.1c.4 0 .5-.1 1-.5h.1c0 .1-.1.2-.1.2 0 .1-.1.2-.1.5v.3c0 .2.1.8.2.9-.5-.3-.6-.5-1-.5h-.2s-.1 0-.1.1v1.2c0 .3 0 .6.4.6 1 0 1.1-.7 1.4-1 .1-.2.2-.3.3-.5 0 .1 0 .2-.1.4v.8c.1.4.1.8.3 1.4-.1-.1-.7-.3-.9-.3h-.2l-.5.2h-.5c-.3-.1-.6-.2-.9-.2h-.4s-.3.1-.5.1c0 0 .3-.8.3-.9 0-.2.1-.3.1-.5v-3.7c0-.4-.1-.9-.3-1.3.2 0 .4.1.6.1h.2c.2 0 .6-.2.9-.2h.6c.1 0 .6.1.8.1h.4c.1 0 .3-.1.4-.2-.1.2-.1.5-.1.6zm6.6-.6c0 .1-.1.2-.1.2s-.2.5-.2.7c0 .2-.1.4-.2.6l-.1.4s-.1.5-.2.8c0 0-.1-.5-.1-.6 0-.2-.2-.6-.3-.8-.2-.2-.6-.3-.9-.3-.3 0-.5.3-.5.5 0 .7 1 1.1 1.5 1.6.6.5 1 1.2 1 1.9v.6c0 .7-1 1.1-1.4 1.1h-.3c-.4-.1-.8-.2-1.2-.2-.3 0-.6.1-.8.2 0 0 .2-.5.2-.6 0 0 .1-.3.1-.4 0 0 .1-.4.1-.5v-.8l-.1-.7c.5.7.8 2 1.9 2 .2 0 .4-.2.4-.4 0-1.4-2.6-1.9-2.6-3.6v-.4c.1-.6.8-1.3 1.4-1.3h.4c.3 0 .7.2.9.2h.4c.1 0 .6-.2.7-.2zm3.1.3c.3 0 .3-.1.7-.1h.4c.3 0 .6 0 .8.1.2.1.6.2.8.2.2 0 .5-.1.7-.3 0 .1-.2.8-.2 1.2v1.4c-.2-.2-.3-.5-.4-.7 0-.1-.2-.9-.6-.9-.2 0-.2.2-.2.4v1.1s0 .1-.1.4c0 .9-.1 1.5-.1 2v.7c0 .3.3.9.5 1.2-.2-.1-.5-.2-.8-.3-.2 0-.5-.1-.5-.1-.2 0-.8.2-1 .2.2-.4.4-.8.4-1.2l.1-1V52l.1-1.9c0-.1 0-.2-.2-.2-.4 0-.6.6-.6.7-.1.3-.3.5-.4.7v-1.4c0-.3-.1-.6-.2-1 .3 0 .6.2.8.2zm7.3-.1h.2c.3 0 .7-.2.8-.2 0 .1-.2.6-.2.8v.2l.9 4.3c.1.5.2 1 .5 1.5-.2-.1-.4-.1-.6-.1h-.7c-.5 0-.6.1-.6.1 0-.1.1-.3.1-.6v-.2c0-.1 0-.4-.1-.5h-1c-.3 0-.3.1-.3.4v.1c0 .3.1.5.4.8h-.1s-.6-.2-.8-.2h-.4c-.2 0-.3.1-.6.2.1-.1.5-.9.5-1.2 0 0 .9-4.4.9-4.6 0-.1.1-.3.1-.4 0-.3-.1-.3-.2-.6.6.1 1 .2 1.2.2zm-.5 4.4c0 .1 0 .1 0 0h.9v-.1c0-.1-.3-2-.4-2.2-.2.3-.5 2.3-.5 2.3zm8.8-3.9c0 .2-.1.5-.1.7v3.9c-.2.9-.7 1.5-1.6 1.5h-.4c-.9 0-1.5-.9-1.5-1.6v-4.2c0-.1-.3-.8-.3-.8l.4.1h.2s.5.1.6.1h.2l.4-.1h.1c-.2.3-.3.7-.3 1V54c0 .3.3.5.6.5.5 0 .6-.3.6-.7v-3.9c0-.2-.2-.7-.3-.8.1 0 .4.1.4.1h.6s.4-.1.7-.1c-.2 0-.3.2-.3.4zm3.5-.4h.4c.1 0 .9-.2 1.1-.2h.5c.9 0 1.4 1.2 1.4 1.7v.4c0 .2-.1.3-.2.5-.2.4-.7.7-.7.7 0 .1.7.5.7 1.4v.8c0 .3.3.8.4 1.1-.3-.1-.6-.2-.9-.2h-.7s-.1-.5-.1-.9v-1.2c0-.3-.3-.6-.6-.6h-.3c-.1 0-.1.1-.1.1v1.8c0 .3.1.6.3.8h-.1s-.4-.1-.6-.1h-.6c-.3.1-.5.1-.8.2.3-.5.5-1 .5-1.6v-4.1c0-.1-.1-.3-.1-.4 0-.1-.3-.4-.3-.5v-.1l.8.4zm.9.9v1.8h.5c.4 0 .6-.6.6-.8v-.4c0-.4-.2-.7-.6-.7-.3 0-.4 0-.5.1zm7.6-1h.2c.3 0 .7-.2.8-.2 0 .1-.2.6-.2.8v.2l.9 4.3c.1.5.2 1 .5 1.5-.2-.1-.4-.1-.6-.1h-.7c-.5 0-.6.1-.6.1 0-.1.1-.3.1-.6v-.2c0-.1 0-.4-.1-.5h-1c-.3 0-.3.1-.3.4v.1c0 .3.1.5.4.8h-.1s-.6-.2-.8-.2h-.4c-.2 0-.3.1-.6.2.1-.1.5-.9.5-1.2 0 0 .9-4.4.9-4.6 0-.1.1-.3.1-.4 0-.3-.1-.3-.2-.6.5.1.9.2 1.2.2zm-.6 4.4c0 .1 0 .1 0 0h.9v-.1c0-.1-.3-2-.4-2.2-.2.3-.5 2.3-.5 2.3zm10.4-4.6c0 .2-.4.6-.4 1l-.1.4c0 .1-.1.5-.1.7v3.4c0 .4.4 1 .6 1.4-.1 0-.4-.1-.4-.1-.3-.2-.6-.3-.8-.3h-.5l-.8.2c0-.1.2-.3.2-.6 0-.4-1-3.2-1.1-3.4v.5c0 2 .1 1.6.1 1.7v.5c0 .4.3 1 .6 1.4v.1c-.1 0-.6-.2-.7-.2h-.5c-.2 0-.6.2-.7.2h-.1l.3-.7c.1-.1.1-.2.1-.3V50c-.1-.5-.4-1-.4-1.1v-.1h.2s.2.1.3.1c.2 0 .4.1.6.1h.4c.2 0 .7-.2.9-.3h.1c-.1.1-.1.3-.2.5v.2c.2 1 .7 2.5 1 3.5v-2.6c0-.4-.3-1-.5-1.5.2.1 1 .2 1.1.2h.3s.4-.2.5-.2zm3.3.3c.3 0 .3-.1.7-.1h.4c.3 0 .6 0 .8.1.2.1.6.2.8.2.2 0 .5-.1.7-.3 0 .1-.2.8-.2 1.2v1.4c-.2-.2-.3-.5-.4-.7 0-.1-.2-.9-.6-.9-.2 0-.2.2-.2.4v1.1s0 .1-.1.4c0 .9-.1 1.5-.1 2v.7c0 .3.3.9.5 1.2-.2-.1-.5-.2-.8-.3-.2 0-.5-.1-.5-.1-.2 0-.8.2-1 .2.2-.4.4-.8.4-1.2l.1-1V52l.1-1.9c0-.1 0-.2-.2-.2-.4 0-.6.6-.6.7-.1.3-.3.5-.4.7v-1.4c0-.3-.1-.6-.2-1 .3 0 .6.2.8.2z"/></svg></svg>