<?xml version="1.0" encoding="utf-8"?>
<!-- Generator: Adobe Illustrator 19.1.0, SVG Export Plug-In . SVG Version: 6.00 Build 0)  -->
<svg version="1.1" id="Layer_1" xmlns="http://www.w3.org/2000/svg" xmlns:xlink="http://www.w3.org/1999/xlink" x="0px" y="0px"
	 viewBox="0 0 50 50" style="enable-background:new 0 0 50 50;" xml:space="preserve">
<style type="text/css">
	.st0{fill:#FFFFFF;}
</style>
<g>
	<path class="st0" d="M36.2,0.6c4.2,0.2,7.9,1.8,10.5,5.3c1.6,2.2,2.6,4.8,2.6,7.5c0.1,7.7,0.3,15.4,0,23.1
		c-0.3,7.4-5.7,12.6-13.1,12.8c-7.4,0.2-14.8,0.2-22.3,0c-7.6-0.2-13-5.5-13.2-13.2c-0.2-7.4-0.2-14.8,0-22.3
		C0.9,6.1,6.3,0.9,14,0.6L36.2,0.6z M35.5,44.9c5.8-0.2,9.3-3.6,9.4-9.4c0.2-7.1,0.2-14.1,0-21.2c-0.1-5.7-3.6-9.2-9.3-9.3
		c-7.1-0.1-14.1-0.1-21.2,0c-3.3,0.1-6.3,1.2-7.9,4.3c-0.8,1.5-1.3,3.3-1.4,4.9c-0.1,7.1-0.2,14.3,0,21.4c0.1,5.3,3,8.5,8.3,9.1
		L35.5,44.9z"/>
	<path class="st0" d="M12.4,24.9c0-7,5.7-12.6,12.7-12.6c7,0,12.7,5.8,12.6,12.7c-0.1,6.9-5.7,12.6-12.6,12.6
		C18.1,37.6,12.4,31.8,12.4,24.9z M33.2,25c0-4.6-3.6-8.2-8.1-8.2c-4.5,0-8.1,3.5-8.2,8.1c0,4.6,3.5,8.2,8.1,8.3
		C29.5,33.1,33.2,29.5,33.2,25z"/>
	<path class="st0" d="M38.2,8.9c1.7,0,2.9,1.3,2.9,3c0,1.6-1.4,2.9-3,2.8c-1.6,0-2.9-1.4-2.9-3C35.2,10.1,36.6,8.9,38.2,8.9z"/>
</g>
</svg>
