<?xml version="1.0" encoding="utf-8"?>
<!-- Generator: Adobe Illustrator 19.1.0, SVG Export Plug-In . SVG Version: 6.00 Build 0)  -->
<svg version="1.1" id="Layer_1" xmlns="http://www.w3.org/2000/svg" xmlns:xlink="http://www.w3.org/1999/xlink" x="0px" y="0px"
	 viewBox="0 0 142 60" style="enable-background:new 0 0 142 60;" xml:space="preserve">
<style type="text/css">
	.st0{fill:#FFFFFF;}
</style>
<g>
	<path class="st0" d="M121.5,29.9c0-0.2,0.2-0.3,0.3-0.3c0.2,0,0.4,0.2,0.4,0.3c0,0.2-0.2,0.3-0.4,0.3
		C121.6,30.2,121.5,30.1,121.5,29.9z"/>
</g>
<g>
	<path class="st0" d="M16.4,29.5c0-0.2,0.2-0.3,0.3-0.3c0.2,0,0.4,0.2,0.4,0.3c0,0.2-0.2,0.3-0.4,0.3C16.6,29.8,16.4,29.7,16.4,29.5
		z"/>
</g>
<g>
	<path class="st0" d="M13.2,23.9c-1.5,0-2.8,0-2.8,0c0,4.8,0.1,8.1,0.3,11.5c0.1,2.6,2.1,3,6.8,3.1l0,0.5c-2.8-0.1-6.1-0.2-8.4-0.2
		L8.8,33l-0.5,5.8c-1.8,0-4.8,0.1-7.6,0.2v-0.5C5.5,38.4,6.9,38,7,35.4c0.2-3.4,0.3-7.1,0.3-11c-0.4-0.3-1.4-0.8-1.9-1.1
		c0.5-0.3,1.5-0.8,1.9-1.1c0-5.2-0.1-6.1-0.3-10.6C6.9,8.8,5.6,8.4,0.9,8.2l0-0.5c2.8,0.2,5.2,0.2,7.4,0.2l0.5,5.9l0.4-5.9
		c1.6,0,3-0.2,5.1-0.2c6,0,8.9,3.8,8.9,7.9C23.2,19.5,20.8,23.9,13.2,23.9z M12.6,8.5c-0.6,0-0.8,0-1.8,0c-0.2,3.4-0.3,6.9-0.3,14.7
		c0,0,1.5,0,2.8,0c4.8,0,6.6-3.4,6.6-7.5C19.8,11,17.7,8.5,12.6,8.5z M21,12.5c0.1,0.9,0.1,1.8,0.1,3c0,1.3-0.1,2.1-0.1,3.2
		c0.5-0.8,0.8-1.9,0.8-3.2C21.8,14.3,21.6,13.4,21,12.5z"/>
	<path class="st0" d="M46.5,24.4c-0.1,8.1-3.9,15-10.1,15c-6.1,0-10-6.9-10.1-15c-0.4-0.3-1.3-0.9-1.8-1.1c0.5-0.3,1.3-0.7,1.8-1.1
		c0.1-8,3.9-14.9,10.1-14.9c6.1,0,10,6.9,10.1,14.9c0.5,0.4,1.3,0.8,1.8,1.1C47.8,23.5,46.9,24.1,46.5,24.4z M27.7,23.5
		c-0.1,1.7,0.4,3.3,1.2,4.4c-0.2-1.5-0.2-2.6-0.2-4.4c0-1.6,0.1-2.9,0.3-4.1C28,20.7,27.8,21.9,27.7,23.5z M36.4,7.9
		c-4,0-6.1,5.7-6.1,15.4c0,9.7,2.2,15.4,6.1,15.4c4,0,6.1-5.7,6.1-15.4C42.5,13.6,40.4,7.9,36.4,7.9z M43.9,19.4
		c0.2,1.2,0.3,2.5,0.3,4.1c0,1.7-0.1,2.8-0.2,4.4c0.7-1.1,1.2-2.6,1.2-4.4C45,21.9,44.8,20.7,43.9,19.4z"/>
	<path class="st0" d="M71.5,11.7c-0.2,3.4-0.3,6.4-0.3,10.6c0.5,0.3,1.2,0.7,1.7,0.9c-0.5,0.3-1.3,0.6-1.7,1c0,3.9,0,15.5,0,15.5
		L70,39.2c0,0-13.8-24.9-15.4-27.5c0,3.4,0,6.5,0,10.7c0.5,0.3,1.2,0.6,1.7,0.9c-0.5,0.3-1.3,0.6-1.7,1c0,3.8,0.1,7.4,0.3,10.7
		c0.1,2.6,1.6,3.4,5.8,3.5l0,0.5c-2.8-0.1-4.5-0.2-6.3-0.2l-0.4-4.6l-0.4,4.6c-2.3,0-3.2,0.1-6.3,0.2v-0.5c4.2-0.2,5.7-0.9,5.8-3.5
		c0.2-3.4,0.3-6.9,0.3-10.7c-0.5-0.3-1.2-0.7-1.7-1c0.6-0.3,1.3-0.6,1.7-0.9c0-4.3-0.2-7.7-0.3-11c-0.1-2.6-1-3-5.8-3.1V7.7
		c2.9,0.1,4.2,0.2,6.4,0.2l4,5.8l-3-5.8l1.7-0.2l13.6,25.1l0-8.6c-0.5-0.3-1.2-0.6-1.7-1c0.6-0.3,1.3-0.6,1.7-0.9
		c0-4.3-0.2-7.3-0.3-10.6c-0.1-2.6-1.6-3.4-5.8-3.5V7.7c2.9,0.1,4,0.2,6.3,0.2l0.4,4.6L71,7.9c1.8,0,3-0.1,5.7-0.2l0,0.5
		C72.5,8.4,71.6,9.1,71.5,11.7z"/>
	<path class="st0" d="M93.2,38.1c-0.6,0.4-2.5,1.2-5.5,1.2c-6.7,0-10.6-7-10.7-15c-0.5-0.3-1.4-0.9-1.9-1.1c0.6-0.3,1.4-0.7,1.9-1.1
		c0.1-9.1,5.3-14.9,11.5-14.9c3.1,0,4.3,0.7,4.9,1l0.3,6.3h-0.9c-0.4-2.8-0.6-6.7-4.4-6.7c-5.1,0-7.6,5.7-7.6,15.4
		c0,9.7,2.6,15.4,7,15.4c3.5,0,5.1-3.3,5.9-6.4l0.9,0L93.2,38.1z M78.4,23.5c-0.1,1.7,0.4,3.3,1.2,4.4c-0.2-1.5-0.2-2.6-0.2-4.4
		c0-1.6,0.1-2.9,0.3-4.1C78.7,20.7,78.5,21.9,78.4,23.5z"/>
	<path class="st0" d="M117,39c-1.3,0-9.7-0.2-12.9-0.2l-0.4-5.8l-0.5,5.8c-1.8,0-4.8,0.1-7.6,0.2l0-0.5c4.7-0.2,6.2-0.5,6.3-3.1
		c0.2-3.4,0.3-7.1,0.3-11c-0.4-0.3-1.4-0.8-1.9-1.1c0.5-0.3,1.5-0.8,1.9-1.1c0-5.2-0.1-6.1-0.3-10.6c-0.1-2.8-1.4-3.2-6.1-3.4V7.7
		c2.8,0.2,5.2,0.2,7.4,0.2l0.5,5.9l0.4-5.9c4.5,0,10.5-0.1,12.2-0.2l-0.4,5.7h-0.6c-0.1-1.3-0.3-2.2-0.5-3.3c-0.2-1.2-1-1.5-2.9-1.6
		c-2.4-0.1-3.8,0-6.2,0c-0.1,1.7-0.2,2.9-0.2,4.7c-0.1,3.7-0.1,5.8-0.1,9.5c1.9,0,3.3,0,5.1,0c2.6,0,3-0.6,3.5-4.4h0.7
		c-0.2,1.7-0.3,3.2-0.3,4.9c0,1.9,0.1,2.4,0.3,4.1l-0.7,0c-0.5-3.3-0.9-3.9-3.4-3.9c-2.1,0-3.3,0-5.2,0c0,4.2-0.1,7.6,0.1,12.3
		c0.1,2,0.3,2.1,2.2,2.1c1.5,0,3.4,0,4.9-0.1c2.9-0.2,3.9-1,5-5h0.7L117,39z"/>
	<path class="st0" d="M121.5,11.4h-0.8l-1.2-7.7l1.5-1.2l1.5,1.2L121.5,11.4z"/>
	<path class="st0" d="M132.7,39.3c-3.4,0.1-6.3-0.6-8-1.6l-0.1-6.3l0.6,0c0.8,5.4,3.6,7.5,7.4,7.4c3.9-0.1,5.9-2.8,5.9-6.5
		c0.1-2.9-1.5-4.7-2.8-5.8c-1.3-1.1-2.6-1.8-4.5-2.7c-0.7-0.3-2.4-0.4-3.4-0.3c0,0,1-0.9,1-1.4c-2.6-2-4.6-4.8-4.2-8.7
		c0.4-3.7,4.3-6.1,8.8-6c2.9,0,4.9,0.6,6.1,1.1l0.1,6.2h-0.7c-0.6-4.9-2.4-6.6-5.5-6.6c-4.2,0-6.3,2-6.4,5.3
		c-0.1,2.4,1.4,4.3,2.9,5.4c1.6,1.3,4,2.6,5.6,3.4c0.5,0.2,1.8,0.7,3.2,0.8c0,0-0.9,0.8-0.9,1.2c1.9,2,3.4,4.5,3.3,7.6
		C141.1,35.9,137.5,39.1,132.7,39.3z M133.1,22c-1.3-0.5-4-1.9-4-1.9s2.2,1.7,3.2,2.7c1.4,0.5,3.9,2,3.9,2S134.1,23,133.1,22z"/>
</g>
<g>
	<path class="st0" d="M14.2,49c-0.1,0.2-0.1,0.3-0.1,0.5c0,0.4,0.5,2.9,0.5,3h0c0,0,0.2-0.6,0.2-0.6s0.4-2.2,0.4-2.4
		c0-0.1-0.2-0.5-0.2-0.6L16,49h0.8l0.1,0h0.2c0.1,0,0.5-0.1,0.5-0.1h0.1c-0.1,0.3-0.5,0.7-0.5,1v4.5c0,0.1,0.1,0.5,0.1,0.5
		c0,0,0.2,0.4,0.3,0.5v0c-0.2-0.1-0.4-0.1-0.5-0.1h-0.5l-0.2,0h-0.2l-0.6,0.1c0.2-0.2,0.3-0.8,0.3-1.2c0-0.2,0-0.2,0-0.2v-2.4
		c-0.3,0.9-0.6,2.1-0.7,3c0,0.1,0,0.1,0,0.1c0,0.1,0,0.1,0,0.1c0,0.1,0.2,0.4,0.2,0.4c-0.1,0-0.6-0.1-0.8-0.1h-0.3
		c0,0-0.3,0.1-0.4,0.1c0-0.2,0.2-0.4,0.2-0.5L14,54.5c-0.2-0.8-0.5-1.9-0.6-2.8l0,0c0,0,0,0.1,0,0.1v2.5c0,0.3,0.2,1,0.3,1.2
		c-0.2,0-0.3-0.1-0.5-0.1c-0.2,0-0.4,0-0.4,0c0,0-0.1,0-0.1,0c-0.3,0-0.6,0.1-0.9,0.2c0.2-0.4,0.4-0.8,0.4-1.1v-4.5
		c0-0.3-0.3-0.7-0.3-1.1c0.2,0.1,0.4,0.1,0.6,0.2l0.8,0.1c0.1,0,0.2,0,0.2,0h0.2c0.1,0,0.7-0.2,0.8-0.2L14.2,49z"/>
	<path class="st0" d="M24,49.4l-0.1,0.7v0.6l0.1,0.6c-0.2-0.2-0.7-1.5-1.7-1.5c-0.3,0-0.5,0.2-0.5,0.5v1.4c0,0,0.1,0,0.1,0
		c0.4,0,0.5-0.1,1-0.5H23c0,0.1-0.1,0.2-0.1,0.2c0,0.1-0.1,0.2-0.1,0.5c0,0,0,0.2,0,0.3c0,0.2,0.1,0.8,0.2,0.9
		c-0.5-0.3-0.6-0.5-1-0.5h-0.1l-0.1,0c0,0-0.1,0-0.1,0.1v1.2c0,0.3,0,0.6,0.4,0.6c1,0,1.1-0.7,1.4-1c0.1-0.2,0.2-0.3,0.3-0.5
		c0,0.1,0,0.2-0.1,0.4l0,0.8c0.1,0.4,0.1,0.8,0.3,1.4c-0.1-0.1-0.7-0.3-0.9-0.3h-0.2l-0.7,0.2h-0.2l-0.1,0h-0.2
		c-0.3-0.1-0.6-0.2-0.9-0.2l-0.4,0c0,0-0.3,0.1-0.5,0.1c0,0,0.3-0.8,0.3-0.9c0-0.2,0.1-0.3,0.1-0.5c0-0.9,0-1.7,0-2.4
		c0-0.7,0-1.1,0-1.3c0-0.4-0.1-0.9-0.3-1.3c0.2,0,0.4,0.1,0.6,0.1H21c0.2,0,0.6-0.2,0.9-0.2H22c0,0,0,0,0.1,0c0,0,0.1,0,0.3,0
		c0.1,0,0.6,0.1,0.8,0.1c0,0,0.2,0,0.2,0h0.2c0.1,0,0.3-0.1,0.4-0.2C24,49,24,49.3,24,49.4z"/>
	<path class="st0" d="M28.9,49.5v0.2c0,0.1,0.3,1,0.3,1c0-0.1,0.5-1.2,0.5-1.4c0-0.1-0.1-0.4-0.2-0.5c0.3,0.1,0.6,0.2,0.8,0.2h0.2
		c0,0,0.2,0,0.4,0c0.2,0,0.4-0.1,0.6-0.1c-0.1,0.2-0.6,0.8-0.9,1.5c0,0.1-0.8,1.6-0.8,1.8c0,0.1,0.7,1.8,1,2.5
		c0.1,0.3,0.5,0.7,0.7,1c-0.3-0.1-0.8-0.2-1.2-0.2H30c-0.3,0.1-0.7,0.2-0.7,0.2c0-0.1,0.2-0.3,0.2-0.7c0-0.4-0.2-0.8-0.4-1.4
		c-0.2,0.4-0.4,0.9-0.5,1.3v0.2c0,0.2,0.1,0.2,0.1,0.4c-0.2,0-0.5-0.1-0.7-0.1c-0.2,0-0.4,0-0.4,0c-0.4,0-0.7,0.2-0.9,0.2h-0.1v-0.1
		c0.3-0.1,0.6-0.5,0.7-0.8c0.3-0.4,1.1-2.4,1.1-2.4c0-0.1-0.5-1.2-0.7-1.6c-0.2-0.6-0.6-1.2-1.1-1.8c0.1,0,0.9,0.2,1.1,0.2h0.2
		c0.2,0,0.8-0.2,1-0.3C29,49,28.9,49.3,28.9,49.5z"/>
	<path class="st0" d="M34.3,48.8c0,0,0.7,0.2,0.9,0.3c0.1,0,0.2,0,0.3,0c0,0,0.1,0,0.1,0c0.3,0,0.5-0.1,0.8-0.2
		c-0.1,0.3-0.4,0.7-0.4,1.1v4.6c0,0.3,0.2,0.7,0.4,1c-0.3,0-0.6-0.2-0.9-0.2l-0.4,0c-0.1,0-0.6,0.1-0.7,0.1h-0.1
		c0.1-0.1,0.4-0.8,0.4-1.1v-4.5c0-0.2-0.4-0.9-0.5-1.1H34.3z"/>
	<path class="st0" d="M42,50.1l-0.1,0.8l-0.1,0.3l-0.1,0.2c0,0,0,0,0,0l0,0v0c0-0.3-0.1-1.4-1-1.4c-0.4,0-0.5,0.6-0.5,0.7v2.8
		c0,0.2,0,0.6,0.2,0.8c0.1,0.1,0.5,0.2,0.5,0.2c0.5,0,0.9-0.4,0.9-0.8c0-0.4-0.1-0.5-0.2-0.6l0,0c0,0,0-0.1,0.1-0.1
		c0.3,0,0.5,0,0.7,0.6c0,0.1,0.1,0.3,0.1,0.5c0,0.3-0.1,0.7-0.3,1c-0.3,0.4-1,0.6-1.3,0.6l-0.1,0c0,0-0.1,0-0.1,0l-0.2,0
		c0,0-0.3,0-0.4-0.1c-0.3-0.1-0.9-0.6-1-1c-0.1-0.2-0.1-0.5-0.1-0.9V51c0-1,0.6-2.1,1.8-2.1c0.1,0,0.7,0.1,0.7,0.2l0.3,0.1
		c0.3,0,0.5,0,0.8-0.2L42,50.1z"/>
	<path class="st0" d="M46.9,49h0.2c0.3,0,0.7-0.2,0.8-0.2h0c0,0.1-0.2,0.6-0.2,0.8v0.2l0.9,4.3c0.1,0.5,0.2,1,0.5,1.5
		c-0.2-0.1-0.4-0.1-0.6-0.1c-0.2,0-0.5,0-0.5,0h-0.2c-0.5,0-0.6,0.1-0.6,0.1c0-0.1,0.1-0.3,0.1-0.6c0,0,0-0.2,0-0.2
		c0-0.1,0-0.4-0.1-0.5h-1c-0.3,0-0.3,0.1-0.3,0.4v0.1c0,0.3,0.1,0.5,0.4,0.8h-0.1c0,0-0.6-0.2-0.8-0.2h-0.4c-0.2,0-0.3,0.1-0.6,0.2
		c0.1-0.1,0.5-0.9,0.5-1.2c0,0,0.9-4.4,0.9-4.6c0-0.1,0.1-0.3,0.1-0.4c0-0.3-0.1-0.3-0.2-0.6C46.3,48.9,46.6,49,46.9,49z M46.3,53.4
		C46.3,53.5,46.4,53.5,46.3,53.4l0.9,0v-0.1c0-0.1-0.3-2-0.4-2.2C46.7,51.4,46.3,53.4,46.3,53.4z"/>
	<path class="st0" d="M56.8,48.8L56.8,48.8c0,0.2-0.4,0.6-0.4,1c0,0-0.1,0.4-0.1,0.4c0,0.1-0.1,0.5-0.1,0.7v0.5l0,0.1
		c0,0,0,0.1,0,0.1V53c0,0,0,0.1,0,0.1c0,0.1,0,0.2,0,0.2v1c0,0.4,0.4,1,0.6,1.4c-0.1,0-0.4-0.1-0.4-0.1c-0.3-0.2-0.6-0.3-0.8-0.3
		h-0.5l-0.8,0.2c0,0,0,0,0,0c0-0.1,0.2-0.3,0.2-0.6c0-0.4-1-3.2-1.1-3.4c0,0.1,0,0.4,0,0.5c0,2,0.1,1.6,0.1,1.7c0,0.1,0,0.2,0,0.5
		c0,0.4,0.3,1,0.6,1.4c0,0,0,0.1,0,0.1c-0.1,0-0.6-0.2-0.7-0.2h-0.5c-0.2,0-0.6,0.2-0.7,0.2h-0.1l0.3-0.7c0.1-0.1,0.1-0.2,0.1-0.3
		v-2.8c0,0,0,0,0,0c0,0,0,0,0,0V50c-0.1-0.5-0.4-1-0.4-1.1v-0.1c0.1,0,0.1,0,0.2,0c0,0,0.2,0.1,0.3,0.1c0.2,0,0.4,0.1,0.6,0.1
		c0.1,0,0.2,0,0.2,0h0.2c0.2,0,0.7-0.2,0.9-0.3h0.1c-0.1,0.1-0.1,0.3-0.2,0.5c0,0.1,0,0.1,0,0.1c0,0.1,0,0.1,0,0.1
		c0.2,1,0.7,2.5,1,3.5h0v-2.1l0-0.5c0-0.4-0.3-1-0.5-1.5c0.2,0.1,1,0.2,1.1,0.2c0,0,0.1,0,0.1,0c0,0,0.1,0,0.2,0
		C56.2,49,56.6,48.8,56.8,48.8L56.8,48.8z"/>
	<path class="st0" d="M64.7,49.1H65c0.1,0,0.9-0.2,1.1-0.2c0.2,0,0.2,0,0.2,0c0,0,0.1,0,0.1,0h0.2c0.9,0,1.4,1.2,1.4,1.7
		c0,0,0,0.2,0,0.4c0,0.2-0.1,0.3-0.2,0.5c-0.2,0.4-0.7,0.7-0.7,0.7c0,0.1,0.7,0.5,0.7,1.4v0.8c0,0.3,0.3,0.8,0.4,1.1
		c-0.3-0.1-0.6-0.2-0.9-0.2c-0.2,0-0.2,0-0.2,0c-0.2,0-0.3,0-0.4,0c0,0-0.1,0-0.1,0c0,0-0.1-0.5-0.1-0.9l0-0.1c0-0.1,0-0.4,0-0.4
		c0-0.6,0-0.7,0-0.7c0-0.3-0.3-0.6-0.6-0.6l-0.3,0c-0.1,0-0.1,0.1-0.1,0.1c0,0.1,0,0.3,0,0.3v1.5c0,0.3,0.1,0.6,0.3,0.8h-0.1
		c0,0-0.4-0.1-0.6-0.1H65c0,0,0,0-0.1,0h-0.3c-0.3,0.1-0.5,0.1-0.8,0.2c0.3-0.5,0.5-1,0.5-1.6c0-0.8,0-0.9,0-1v-3c0,0,0,0,0-0.1
		c0-0.1-0.1-0.3-0.1-0.4c0-0.1-0.3-0.4-0.3-0.5v-0.1L64.7,49.1z M65.6,50v1.8h0.5c0.4,0,0.6-0.6,0.6-0.8c0,0,0-0.2,0-0.4
		c0-0.4-0.2-0.7-0.6-0.7C65.7,49.9,65.6,49.9,65.6,50z"/>
	<path class="st0" d="M74.6,49.4l-0.1,0.7v0.6l0.1,0.6c-0.2-0.2-0.7-1.5-1.7-1.5c-0.3,0-0.5,0.2-0.5,0.5v1.4c0,0,0.1,0,0.1,0
		c0.4,0,0.5-0.1,1-0.5h0.1c0,0.1-0.1,0.2-0.1,0.2c0,0.1-0.1,0.2-0.1,0.5c0,0,0,0.2,0,0.3c0,0.2,0.1,0.8,0.2,0.9
		c-0.5-0.3-0.6-0.5-1-0.5h-0.1l-0.1,0c0,0-0.1,0-0.1,0.1v1.2c0,0.3,0,0.6,0.4,0.6c1,0,1.1-0.7,1.4-1c0.1-0.2,0.2-0.3,0.3-0.5
		c0,0.1,0,0.2-0.1,0.4l0,0.8c0.1,0.4,0.1,0.8,0.3,1.4c-0.1-0.1-0.7-0.3-0.9-0.3h-0.2L73,55.5h-0.2l-0.1,0h-0.2
		c-0.3-0.1-0.6-0.2-0.9-0.2l-0.4,0c0,0-0.3,0.1-0.5,0.1c0,0,0.3-0.8,0.3-0.9c0-0.2,0.1-0.3,0.1-0.5c0-0.9,0-1.7,0-2.4
		c0-0.7,0-1.1,0-1.3c0-0.4-0.1-0.9-0.3-1.3c0.2,0,0.4,0.1,0.6,0.1h0.2c0.2,0,0.6-0.2,0.9-0.2h0.2c0,0,0,0,0.1,0c0,0,0.1,0,0.3,0
		c0.1,0,0.6,0.1,0.8,0.1c0,0,0.2,0,0.2,0h0.2c0.1,0,0.3-0.1,0.4-0.2C74.6,49,74.6,49.3,74.6,49.4z"/>
	<path class="st0" d="M81.2,48.8c0,0.1-0.1,0.2-0.1,0.2c0,0-0.2,0.5-0.2,0.7c0,0.2-0.1,0.4-0.2,0.6l-0.1,0.4c0,0-0.1,0.5-0.2,0.8
		c0,0-0.1-0.5-0.1-0.6c0-0.2-0.2-0.6-0.3-0.8c-0.2-0.2-0.6-0.3-0.9-0.3c-0.3,0-0.5,0.3-0.5,0.5c0,0.7,1,1.1,1.5,1.6
		c0.6,0.5,1,1.2,1,1.9c0,0.6,0,0.4,0,0.6c0,0.7-1,1.1-1.4,1.1h-0.3c-0.4-0.1-0.8-0.2-1.2-0.2c-0.3,0-0.6,0.1-0.8,0.2h0
		c0,0,0.2-0.5,0.2-0.6c0,0,0.1-0.3,0.1-0.4c0,0,0.1-0.4,0.1-0.5v-0.8l-0.1-0.7c0.5,0.7,0.8,2,1.9,2h0c0.2,0,0.4-0.2,0.4-0.4
		c0-1.4-2.6-1.9-2.6-3.6v-0.4c0.1-0.6,0.8-1.3,1.4-1.3l0.1,0h0.3c0.3,0,0.7,0.2,0.9,0.2c0.3,0,0.3,0,0.4,0
		C80.6,49,81.1,48.8,81.2,48.8L81.2,48.8z"/>
	<path class="st0" d="M84.3,49.1c0.3,0,0.3-0.1,0.7-0.1c0.1,0,0.3,0,0.4,0c0.3,0,0.6,0,0.8,0.1c0.2,0.1,0.6,0.2,0.8,0.2
		c0.2,0,0.5-0.1,0.7-0.3v0c0,0.1-0.2,0.8-0.2,1.2l0,0.5c0,0.2,0,0.3,0,0.4l0,0.2c0,0.1,0,0,0,0.3c-0.2-0.2-0.3-0.5-0.4-0.7
		c0-0.1-0.2-0.9-0.6-0.9c-0.2,0-0.2,0.2-0.2,0.4v1.1c0,0,0,0.1-0.1,0.4c0,0.9-0.1,1.5-0.1,2v0.7c0,0.3,0.3,0.9,0.5,1.2
		c-0.2-0.1-0.5-0.2-0.8-0.3c-0.2,0-0.5-0.1-0.5-0.1c-0.2,0-0.8,0.2-1,0.2c0.2-0.4,0.4-0.8,0.4-1.2l0.1-1V52l0.1-1.9l0,0
		c0-0.1,0-0.2-0.2-0.2c-0.4,0-0.6,0.6-0.6,0.7v0c-0.1,0.3-0.3,0.5-0.4,0.7c0-0.3,0-0.6,0-0.8c0-0.2,0-0.4,0-0.6c0-0.3-0.1-0.6-0.2-1
		C83.8,48.9,84.1,49.1,84.3,49.1z"/>
	<path class="st0" d="M91.6,49h0.2c0.3,0,0.7-0.2,0.8-0.2h0c0,0.1-0.2,0.6-0.2,0.8v0.2l0.9,4.3c0.1,0.5,0.2,1,0.5,1.5
		c-0.2-0.1-0.4-0.1-0.6-0.1c-0.2,0-0.5,0-0.5,0h-0.2c-0.5,0-0.6,0.1-0.6,0.1c0-0.1,0.1-0.3,0.1-0.6c0,0,0-0.2,0-0.2
		c0-0.1,0-0.4-0.1-0.5h-1c-0.3,0-0.3,0.1-0.3,0.4v0.1c0,0.3,0.1,0.5,0.4,0.8h-0.1c0,0-0.6-0.2-0.8-0.2h-0.4c-0.2,0-0.3,0.1-0.6,0.2
		c0.1-0.1,0.5-0.9,0.5-1.2c0,0,0.9-4.4,0.9-4.6c0-0.1,0.1-0.3,0.1-0.4c0-0.3-0.1-0.3-0.2-0.6C91,48.9,91.4,49,91.6,49z M91.1,53.4
		C91.1,53.5,91.1,53.5,91.1,53.4l0.9,0v-0.1c0-0.1-0.3-2-0.4-2.2C91.4,51.4,91.1,53.4,91.1,53.4z"/>
	<path class="st0" d="M99.9,49.5c0,0.2-0.1,0.5-0.1,0.7v3.9c-0.2,0.9-0.7,1.5-1.6,1.5h-0.4c-0.9,0-1.5-0.9-1.5-1.6v-4.2
		c0-0.1-0.3-0.8-0.3-0.8c0,0,0,0,0,0l0.4,0.1h0.2c0,0,0.5,0.1,0.6,0.1c0,0,0.2,0,0.2,0c0,0,0.4-0.1,0.4-0.1h0.1
		c-0.2,0.3-0.3,0.7-0.3,1v3.9c0,0.3,0.3,0.5,0.6,0.5c0.5,0,0.6-0.3,0.6-0.7v-3.9c0-0.2-0.2-0.7-0.3-0.8v0c0.1,0,0.4,0.1,0.4,0.1h0.6
		c0,0,0.4-0.1,0.7-0.1C100,49.1,99.9,49.3,99.9,49.5z"/>
	<path class="st0" d="M103.4,49.1h0.4c0.1,0,0.9-0.2,1.1-0.2c0.2,0,0.2,0,0.2,0c0,0,0.1,0,0.1,0h0.2c0.9,0,1.4,1.2,1.4,1.7
		c0,0,0,0.2,0,0.4c0,0.2-0.1,0.3-0.2,0.5c-0.2,0.4-0.7,0.7-0.7,0.7c0,0.1,0.7,0.5,0.7,1.4v0.8c0,0.3,0.3,0.8,0.4,1.1
		c-0.3-0.1-0.6-0.2-0.9-0.2c-0.2,0-0.2,0-0.2,0c-0.2,0-0.3,0-0.4,0c0,0-0.1,0-0.1,0c0,0-0.1-0.5-0.1-0.9l0-0.1c0-0.1,0-0.4,0-0.4
		c0-0.6,0-0.7,0-0.7c0-0.3-0.3-0.6-0.6-0.6l-0.3,0c-0.1,0-0.1,0.1-0.1,0.1c0,0.1,0,0.3,0,0.3v1.5c0,0.3,0.1,0.6,0.3,0.8h-0.1
		c0,0-0.4-0.1-0.6-0.1h-0.2c0,0,0,0-0.1,0h-0.3c-0.3,0.1-0.5,0.1-0.8,0.2c0.3-0.5,0.5-1,0.5-1.6c0-0.8,0-0.9,0-1v-3c0,0,0,0,0-0.1
		c0-0.1-0.1-0.3-0.1-0.4c0-0.1-0.3-0.4-0.3-0.5v-0.1L103.4,49.1z M104.3,50v1.8h0.5c0.4,0,0.6-0.6,0.6-0.8c0,0,0-0.2,0-0.4
		c0-0.4-0.2-0.7-0.6-0.7C104.5,49.9,104.4,49.9,104.3,50z"/>
	<path class="st0" d="M111.9,49h0.2c0.3,0,0.7-0.2,0.8-0.2h0c0,0.1-0.2,0.6-0.2,0.8v0.2l0.9,4.3c0.1,0.5,0.2,1,0.5,1.5
		c-0.2-0.1-0.4-0.1-0.6-0.1c-0.2,0-0.5,0-0.5,0h-0.2c-0.5,0-0.6,0.1-0.6,0.1c0-0.1,0.1-0.3,0.1-0.6c0,0,0-0.2,0-0.2
		c0-0.1,0-0.4-0.1-0.5h-1c-0.3,0-0.3,0.1-0.3,0.4v0.1c0,0.3,0.1,0.5,0.4,0.8h-0.1c0,0-0.6-0.2-0.8-0.2h-0.4c-0.2,0-0.3,0.1-0.6,0.2
		c0.1-0.1,0.5-0.9,0.5-1.2c0,0,0.9-4.4,0.9-4.6c0-0.1,0.1-0.3,0.1-0.4c0-0.3-0.1-0.3-0.2-0.6C111.2,48.9,111.6,49,111.9,49z
		 M111.3,53.4C111.3,53.5,111.3,53.5,111.3,53.4l0.9,0v-0.1c0-0.1-0.3-2-0.4-2.2C111.6,51.4,111.3,53.4,111.3,53.4z"/>
	<path class="st0" d="M121.7,48.8L121.7,48.8c0,0.2-0.4,0.6-0.4,1c0,0-0.1,0.4-0.1,0.4c0,0.1-0.1,0.5-0.1,0.7v0.5l0,0.1
		c0,0,0,0.1,0,0.1V53c0,0,0,0.1,0,0.1c0,0.1,0,0.2,0,0.2v1c0,0.4,0.4,1,0.6,1.4c-0.1,0-0.4-0.1-0.4-0.1c-0.3-0.2-0.6-0.3-0.8-0.3
		H120l-0.8,0.2c0,0,0,0,0,0c0-0.1,0.2-0.3,0.2-0.6c0-0.4-1-3.2-1.1-3.4c0,0.1,0,0.4,0,0.5c0,2,0.1,1.6,0.1,1.7c0,0.1,0,0.2,0,0.5
		c0,0.4,0.3,1,0.6,1.4c0,0,0,0.1,0,0.1c-0.1,0-0.6-0.2-0.7-0.2h-0.5c-0.2,0-0.6,0.2-0.7,0.2h-0.1l0.3-0.7c0.1-0.1,0.1-0.2,0.1-0.3
		v-2.8c0,0,0,0,0,0c0,0,0,0,0,0V50c-0.1-0.5-0.4-1-0.4-1.1v-0.1c0.1,0,0.1,0,0.2,0c0,0,0.2,0.1,0.3,0.1c0.2,0,0.4,0.1,0.6,0.1
		c0.1,0,0.2,0,0.2,0h0.2c0.2,0,0.7-0.2,0.9-0.3h0.1c-0.1,0.1-0.1,0.3-0.2,0.5c0,0.1,0,0.1,0,0.1c0,0.1,0,0.1,0,0.1
		c0.2,1,0.7,2.5,1,3.5h0v-2.1l0-0.5c0-0.4-0.3-1-0.5-1.5c0.2,0.1,1,0.2,1.1,0.2c0,0,0.1,0,0.1,0c0,0,0.1,0,0.2,0
		C121.2,49,121.6,48.8,121.7,48.8L121.7,48.8z"/>
	<path class="st0" d="M125,49.1c0.3,0,0.3-0.1,0.7-0.1c0.1,0,0.3,0,0.4,0c0.3,0,0.6,0,0.8,0.1c0.2,0.1,0.6,0.2,0.8,0.2
		c0.2,0,0.5-0.1,0.7-0.3v0c0,0.1-0.2,0.8-0.2,1.2l0,0.5c0,0.2,0,0.3,0,0.4l0,0.2c0,0.1,0,0,0,0.3c-0.2-0.2-0.3-0.5-0.4-0.7
		c0-0.1-0.2-0.9-0.6-0.9c-0.2,0-0.2,0.2-0.2,0.4v1.1c0,0,0,0.1-0.1,0.4c0,0.9-0.1,1.5-0.1,2v0.7c0,0.3,0.3,0.9,0.5,1.2
		c-0.2-0.1-0.5-0.2-0.8-0.3c-0.2,0-0.5-0.1-0.5-0.1c-0.2,0-0.8,0.2-1,0.2c0.2-0.4,0.4-0.8,0.4-1.2l0.1-1V52l0.1-1.9l0,0
		c0-0.1,0-0.2-0.2-0.2c-0.4,0-0.6,0.6-0.6,0.7v0c-0.1,0.3-0.3,0.5-0.4,0.7c0-0.3,0-0.6,0-0.8c0-0.2,0-0.4,0-0.6c0-0.3-0.1-0.6-0.2-1
		C124.5,48.9,124.8,49.1,125,49.1z"/>
</g>
</svg>
